<svg width="160" height="24" viewBox="0 0 160 24" fill="none" xmlns="http://www.w3.org/2000/svg">
<path d="M30.8944 3.86414C29.1863 5.07306 27.2047 5.8387 25.1275 6.09227C22.5463 6.39766 20.3389 7.30161 19.0355 9.66289C17.6601 12.1524 17.77 14.6713 19.4887 16.9312C21.1916 19.174 23.5529 20.1304 26.3612 19.4891C29.1073 18.8612 30.7918 17.0521 31.4832 14.3586C31.923 12.6484 32.2284 10.8979 32.7133 9.19991C32.9454 8.38758 33.4548 7.65464 33.8628 6.83497C36.5405 9.73984 36.9021 16.2593 33.1165 20.3015C28.9326 24.7724 21.9038 25.1364 17.4671 21.0869C12.8984 16.9165 12.5723 10.0526 16.7659 5.48026C20.8532 1.02645 27.5303 1.19747 30.8944 3.86414Z" fill="#F16825"/>
<path d="M24.8882 16.6282C22.9508 16.6282 21.4617 15.3065 21.1869 13.33C21.0743 12.4349 21.3044 11.5302 21.8309 10.7975C22.3574 10.0649 23.1414 9.55833 24.0258 9.37951C27.2519 8.72109 30.0701 7.34072 32.4093 5.01732C33.4122 4.02174 34.1378 2.89424 34.4347 1.49556C34.6509 0.480441 35.4046 -0.107129 36.2805 0.0162483C37.1563 0.139626 37.7732 0.627029 37.888 1.55786C38.0102 2.51923 37.4483 3.29858 36.3953 3.50136C34.7132 3.8263 33.4489 4.76201 32.3641 6.008C30.4011 8.25323 29.0513 10.7843 28.5297 13.7466C28.2182 15.4812 26.6998 16.6234 24.8882 16.6282Z" fill="white"/>
<path d="M71.9876 14.7458C71.7812 16.7406 72.067 17.0582 73.9043 17.0668C75.9654 17.0668 78.0254 17.07 80.0841 17.0766C80.1777 17.0897 80.27 17.1106 80.3602 17.1389V18.8234C79.6273 18.8234 78.8675 18.8356 78.1064 18.8234C76.119 18.7867 74.1217 18.8417 72.1464 18.6658C70.4937 18.518 69.8584 17.7228 69.7864 16.0712C69.7265 14.6982 69.7375 13.3215 69.7766 11.9472C69.8328 10.0013 70.6537 9.19138 72.7658 9.03502C73.7699 8.96051 74.785 9.02281 75.8746 9.02281V10.766C75.1857 10.766 74.4906 10.766 73.798 10.766C72.0951 10.7782 71.7543 11.1862 72.0084 13.0344H80.3052V14.7446L71.9876 14.7458Z" fill="white"/>
<path d="M46.5317 8.46338H48.5839C48.5839 11.1423 48.6694 13.7796 48.5509 16.4035C48.4813 17.961 47.6958 18.6268 45.8134 18.7526C44.0679 18.8521 42.3173 18.8141 40.5778 18.639C39.1119 18.5046 38.4718 17.702 38.3606 16.2337C38.313 15.6022 38.324 14.9633 38.3362 14.3281C38.3826 11.9192 39.2157 11.0775 41.643 11.0225C43.1919 10.9883 44.7421 10.9957 46.291 10.9822C46.3749 10.9614 46.4567 10.9328 46.5353 10.8967L46.5317 8.46338ZM46.4804 12.7792H42.8877C40.5558 12.7804 40.1893 13.1933 40.3994 15.5142C40.408 15.6144 40.4348 15.7133 40.441 15.8123C40.4886 16.5697 40.8942 16.9972 41.6527 17.0143C42.8987 17.0412 44.1521 17.1047 45.3846 16.985C45.778 16.9459 46.379 16.4072 46.4303 16.0346C46.5744 14.9902 46.4804 13.9164 46.4804 12.7792Z" fill="white"/>
<path d="M127.042 11.0238V8.46948H129.057C129.057 11.1569 129.147 13.8309 129.022 16.4902C128.952 17.9903 128.167 18.6304 126.318 18.7526C124.549 18.8747 122.753 18.7868 120.983 18.6304C119.673 18.5193 118.998 17.7546 118.881 16.4499C118.789 15.4501 118.786 14.444 118.874 13.4437C119.02 11.808 120.043 11.0665 122.115 11.025C123.69 10.9944 125.272 11.0238 127.042 11.0238ZM126.969 12.7791H123.378C121.042 12.7791 120.672 13.1847 120.884 15.5069C120.894 15.6058 120.92 15.7048 120.926 15.805C120.974 16.5587 121.373 16.9923 122.135 17.0094C123.38 17.0375 124.633 17.101 125.867 16.9813C126.261 16.9434 126.865 16.4072 126.917 16.0358C127.057 14.9951 126.964 13.9262 126.964 12.7791H126.969Z" fill="white"/>
<path d="M10.5714 9.02649V10.766C8.73904 10.766 6.96412 10.766 5.18552 10.766C4.57474 10.766 3.96396 10.7587 3.36662 10.81C2.62391 10.871 2.19392 11.2815 2.18537 12.0511C2.17193 13.1505 2.14995 14.2609 2.16705 15.3664C2.18659 16.6918 2.53352 17.0387 3.85524 17.0534C5.74378 17.0741 7.63353 17.0534 9.52206 17.0534H10.5653V18.81C10.0596 18.81 9.57215 18.8185 9.08475 18.81C6.82974 18.766 4.56497 18.81 2.32219 18.6402C0.798901 18.5339 0.138036 17.7338 0.058635 16.1824C-0.019545 14.6768 -0.019545 13.1682 0.058635 11.6626C0.14903 9.95243 0.933272 9.15597 2.89876 9.05825C5.41518 8.93121 7.94014 9.02649 10.5714 9.02649Z" fill="white"/>
<path d="M111.548 18.8869C110.577 18.8124 109.602 18.7648 108.636 18.6573C107.455 18.518 106.689 17.8339 106.579 16.6588C106.454 15.5301 106.449 14.3914 106.563 13.2616C106.738 11.8202 107.442 11.2057 109.25 11.0873C110.986 10.9749 112.748 11.0616 114.485 11.2094C115.764 11.3194 116.439 12.1366 116.549 13.4265C116.604 14.161 116.618 14.8979 116.592 15.6339C116.541 17.8804 115.737 18.6878 113.475 18.81C112.836 18.8429 112.193 18.81 111.553 18.81L111.548 18.8869ZM111.584 12.7791C108.618 12.7791 108.311 13.0845 108.553 15.6742C108.631 16.5171 109.042 16.9911 109.878 17.0179C110.956 17.0534 112.036 17.0509 113.114 17.0301C114.057 17.013 114.476 16.4902 114.542 15.5643C114.716 13.1517 114.39 12.7779 111.989 12.7767L111.584 12.7791Z" fill="white"/>
<path d="M61.1025 15.7989H53.1624C52.9608 16.9618 53.1538 17.233 54.1897 17.2587C55.0314 17.2794 55.8742 17.2587 56.8087 17.2587V18.9346C55.3502 18.7929 53.855 18.7514 52.4038 18.4729C51.3374 18.2677 51.0027 17.2904 50.9379 16.3022C50.883 15.5021 50.9049 14.6958 50.9172 13.892C50.9465 12.0597 51.4644 11.3023 53.2797 11.1606C55.3148 11.0018 57.3804 11.0568 59.4204 11.1948C60.6176 11.2767 61.0317 11.8765 61.1367 13.0614C61.1893 13.6599 61.1612 14.2658 61.1599 14.8693C61.1514 15.1283 61.1257 15.3921 61.1025 15.7989ZM58.9587 14.4075C59.1212 12.6302 59.0808 12.5752 57.4476 12.5752C56.4704 12.5752 55.4931 12.5752 54.5159 12.5752C53.1587 12.5752 52.8277 13.0247 53.1636 14.4075H58.9587Z" fill="white"/>
<path d="M141.598 15.7988H133.658C133.414 16.9165 133.619 17.2305 134.636 17.2574C135.504 17.2818 136.375 17.2574 137.308 17.2574V18.8674C136 18.799 134.726 18.8136 133.478 18.6426C132.134 18.4581 131.499 17.6812 131.401 16.3216C131.347 15.5203 131.369 14.7141 131.38 13.9103C131.407 12.0401 131.935 11.2717 133.813 11.1312C135.85 10.9773 137.912 11.0909 139.958 11.1862C140.969 11.2326 141.525 11.9326 141.575 12.9294C141.636 13.8565 141.598 14.7813 141.598 15.7988ZM139.422 14.405C139.631 12.6765 139.544 12.5727 137.956 12.5727C136.979 12.5727 136.001 12.5727 135.024 12.5727C133.647 12.5727 133.341 12.9709 133.63 14.405H139.422Z" fill="white"/>
<path d="M92.439 18.7721H90.4381C90.4381 17.3307 90.4503 15.9345 90.4381 14.537C90.4234 13.1774 90.057 12.8134 88.6901 12.784C87.813 12.7657 86.9347 12.7547 86.0588 12.784C84.8641 12.8317 84.5013 13.1982 84.4806 14.3867C84.4561 15.8208 84.4806 17.255 84.4806 18.7514H82.2634C82.3563 16.7761 82.3331 14.774 82.5835 12.8073C82.7594 11.4342 84.0493 11.1093 85.2159 11.069C86.9297 11.0097 88.6454 11.0537 90.3538 11.2009C91.6401 11.3121 92.3596 12.056 92.4183 13.2849C92.5025 15.0867 92.439 16.8909 92.439 18.7721Z" fill="white"/>
<path d="M155.836 11.0458V12.5825C155.059 12.5825 154.323 12.5972 153.589 12.5825C153.014 12.5678 152.711 12.8549 152.868 13.3704C152.953 13.6453 153.34 14.0068 153.601 14.0191C155.016 14.0826 156.437 14.0264 157.855 14.0594C158.661 14.0777 159.696 14.085 159.884 15C160.089 15.998 160.006 17.1121 159.762 18.1101C159.681 18.4484 158.758 18.7697 158.209 18.7856C155.784 18.8589 153.356 18.8173 150.839 18.8173V17.2635H155.871C156.311 17.2635 156.75 17.244 157.188 17.2635C157.883 17.3002 158.066 16.869 158.082 16.3119C158.1 15.7268 157.876 15.3713 157.19 15.386C155.772 15.4153 154.346 15.4752 152.937 15.3591C152.267 15.3029 151.192 15.0036 151.065 14.5859C150.795 13.6929 150.937 12.6314 151.102 11.6798C151.148 11.4098 151.848 11.102 152.269 11.069C153.435 10.9945 154.613 11.0458 155.836 11.0458Z" fill="white"/>
<path d="M104.321 11.0531V12.7792C102.533 12.7792 100.786 12.7217 99.0478 12.8097C98.4089 12.8415 97.3144 13.1224 97.246 13.4535C97.0432 14.4515 97.1507 15.5484 97.351 16.5648C97.4011 16.8091 98.2708 17.0241 98.7692 17.04C100.584 17.0962 102.402 17.062 104.293 17.062V18.9163C101.761 18.8076 99.2188 18.7526 96.6865 18.5584C95.8314 18.4936 95.1889 17.8315 95.0985 16.9471C94.9763 15.7256 94.8847 14.4735 95.0129 13.2592C95.1644 11.8178 95.8888 11.1972 97.7004 11.0849C99.8723 10.9505 102.063 11.0531 104.321 11.0531Z" fill="white"/>
<path d="M148.802 11.0299V12.7791C148.405 12.7791 148.047 12.7791 147.689 12.7791C146.282 12.8048 145.953 13.1236 145.945 14.4893C145.936 15.8868 145.945 17.2855 145.945 18.7477H143.724C143.837 16.7492 143.818 14.7239 144.114 12.7449C144.311 11.4073 145.644 11.1899 146.801 11.0347C147.415 10.9615 148.053 11.0299 148.802 11.0299Z" fill="white"/>
</svg>
