<svg width="2250" height="1500" viewBox="0 0 2250 1500" fill="none" xmlns="http://www.w3.org/2000/svg">
<g clip-path="url(#clip0_2417_2092)">
<rect width="2250" height="1500" fill="#FEFEFE"/>
<path d="M-335.536 1805.35C-335.536 1805.35 -623.55 1133.96 1177.3 1324.45C1499.38 1358.41 2039.54 1435.56 2232.11 1490.9C2424.69 1546.24 3170.95 1767.77 2263.6 1985.11C2234.61 1992.07 2203.07 1997.92 2169.51 2002.58C2069.49 2016.87 1968.31 2030.21 1865.12 2042.21C1725.6 2058.89 1580.78 2069.91 1435.23 2081.37C1325.93 2090.42 1219.64 2102.04 1117.16 2116.15C938.629 2139.8 776.289 2160.78 571.482 2153.49C435.823 2148.64 300.223 2134.72 179.384 2109.95C-146.797 2043.21 -281.767 1917.26 -335.536 1805.35Z" fill="#EDBE00"/>
<path d="M841.862 214.177C841.862 214.177 -2203.22 -321.072 -1187.68 -1374.1C-1006.56 -1562.57 -611.921 -1856.44 -346.04 -1930.65C-80.1588 -2004.87 981.981 -2284.69 1879.53 -1410.13C1908.25 -1382.18 1931.8 -1353.65 1949.82 -1325.01C2005.23 -1239.22 2056.33 -1153.66 2101.2 -1068.16C2163.91 -952.066 2200.72 -838.467 2239.45 -723.863C2270.48 -637.335 2313.38 -550.078 2367.83 -462.752C2458.47 -311.66 2538.5 -174.849 2487.63 -39.3145C2453.88 50.445 2379.33 130.205 2257.25 187.698C1928.33 343.041 1349.92 299.352 841.862 214.177Z" fill="#EDBE00"/>
<g clip-path="url(#clip1_2417_2092)">
<path d="M1126.42 879.249C1138.96 879.249 1149.13 869.079 1149.13 856.533C1149.13 843.987 1138.96 833.817 1126.42 833.817C1113.87 833.817 1103.7 843.987 1103.7 856.533C1103.7 869.079 1113.87 879.249 1126.42 879.249Z" fill="#EBBE1D"/>
<path d="M1013.35 833.606C1025.89 833.606 1036.06 823.436 1036.06 810.89C1036.06 798.345 1025.89 788.174 1013.35 788.174C1000.8 788.174 990.633 798.345 990.633 810.89C990.633 823.436 1000.8 833.606 1013.35 833.606Z" fill="#EBBE1D"/>
<path d="M965.716 721.384C978.262 721.384 988.432 711.213 988.432 698.668C988.432 686.122 978.262 675.952 965.716 675.952C953.17 675.952 943 686.122 943 698.668C943 711.213 953.17 721.384 965.716 721.384Z" fill="#EBBE1D"/>
<path d="M1011.36 608.315C1023.91 608.315 1034.08 598.145 1034.08 585.599C1034.08 573.054 1023.91 562.883 1011.36 562.883C998.815 562.883 988.645 573.054 988.645 585.599C988.645 598.145 998.815 608.315 1011.36 608.315Z" fill="#EBBE1D"/>
<path d="M1123.61 560.682C1136.16 560.682 1146.33 550.511 1146.33 537.966C1146.33 525.42 1136.16 515.25 1123.61 515.25C1111.07 515.25 1100.9 525.42 1100.9 537.966C1100.9 550.511 1111.07 560.682 1123.61 560.682Z" fill="#EBBE1D"/>
<path d="M1236.65 606.325C1249.2 606.325 1259.37 596.155 1259.37 583.609C1259.37 571.063 1249.2 560.893 1236.65 560.893C1224.1 560.893 1213.93 571.063 1213.93 583.609C1213.93 596.155 1224.1 606.325 1236.65 606.325Z" fill="#EBBE1D"/>
<path d="M1284.29 718.577C1296.83 718.577 1307 708.407 1307 695.861C1307 683.315 1296.83 673.145 1284.29 673.145C1271.74 673.145 1261.57 683.315 1261.57 695.861C1261.57 708.407 1271.74 718.577 1284.29 718.577Z" fill="#EBBE1D"/>
<path d="M1238.64 831.615C1251.19 831.615 1261.36 821.445 1261.36 808.899C1261.36 796.353 1251.19 786.183 1238.64 786.183C1226.1 786.183 1215.93 796.353 1215.93 808.899C1215.93 821.445 1226.1 831.615 1238.64 831.615Z" fill="#EBBE1D"/>
<path d="M1125 814.178C1189.76 814.178 1242.26 761.679 1242.26 696.917C1242.26 632.156 1189.76 579.657 1125 579.657C1060.24 579.657 1007.74 632.156 1007.74 696.917C1007.74 761.679 1060.24 814.178 1125 814.178Z" stroke="#EBBE1D" stroke-width="11.9737" stroke-miterlimit="10"/>
<path d="M1120.38 844.297L1132.81 844.128L1132.21 800.208L1119.79 800.377L1120.38 844.297Z" fill="#EBBE1D"/>
<path d="M1017.89 797.467L1026.8 806.135L1057.43 774.656L1048.52 765.988L1017.89 797.467Z" fill="#EBBE1D"/>
<path d="M978.499 691.872L978.668 704.3L1022.59 703.702L1022.42 691.275L978.499 691.872Z" fill="#EBBE1D"/>
<path d="M1025.32 589.402L1016.65 598.31L1048.13 628.943L1056.8 620.035L1025.32 589.402Z" fill="#EBBE1D"/>
<path d="M1130.92 550.002L1118.49 550.171L1119.09 594.091L1131.51 593.921L1130.92 550.002Z" fill="#EBBE1D"/>
<path d="M1233.45 596.819L1224.54 588.151L1193.91 619.63L1202.81 628.298L1233.45 596.819Z" fill="#EBBE1D"/>
<path d="M1272.82 702.436L1272.65 690.008L1228.73 690.606L1228.9 703.034L1272.82 702.436Z" fill="#EBBE1D"/>
<path d="M1226 804.961L1234.67 796.053L1203.19 765.42L1194.52 774.328L1226 804.961Z" fill="#EBBE1D"/>
<path d="M1063.43 676.464C1063.58 679.541 1058.69 680.748 1056.49 682.648C1052.29 686.299 1049.04 688.259 1048.61 693.478C1048.55 694.021 1048.92 696.525 1048.8 697.219C1048.67 697.913 1048.46 699.934 1047.92 699.995C1047.2 700.085 1047.29 699.995 1047.2 697.37C1047.2 696.857 1047.14 695.65 1046.44 695.741C1045.75 695.831 1045.66 696.465 1045.48 696.917C1044.87 698.396 1044.87 698.456 1042.97 703.072C1042.64 703.886 1041.04 704.942 1042.37 700.387C1043.03 698.034 1042.97 696.917 1040.02 700.145C1039.17 701.05 1038.3 701.563 1037 701.654C1036.31 701.714 1035.28 701.684 1035.73 700.99C1035.97 700.628 1037.42 700.025 1038.27 699.029C1039.41 697.672 1039.38 697.4 1040.41 695.982C1044.9 689.707 1045.84 685.755 1050.06 678.485C1052.66 674.051 1057.09 666.871 1061.25 663.401C1061.5 663.22 1061.83 663.371 1061.89 663.673" fill="url(#paint0_linear_2417_2092)"/>
<path d="M1062.71 662.195C1062.95 660.596 1063.64 659.027 1064.18 657.489C1064.73 655.95 1064.97 654.321 1064.64 652.753C1063.61 647.865 1065.69 644.275 1069.07 641.108C1071.15 639.177 1073.35 637.367 1075.74 635.829C1076.04 635.617 1076.34 635.406 1076.64 635.195C1079.24 633.144 1079.42 631.635 1077.46 629.011C1076.94 628.317 1076.4 627.623 1076.01 626.869C1075.32 625.421 1075.8 624.214 1077.25 623.55C1078.85 622.826 1080.02 621.861 1080.56 620.081C1080.93 618.844 1081.98 618.362 1083.22 618.633C1084.46 618.905 1085.33 618.513 1086.18 617.638C1088.74 614.892 1092 614.44 1095.35 615.466C1098.91 616.552 1101.41 618.995 1102.1 622.826C1102.56 625.27 1102.5 625.391 1104.73 624.546C1109.37 622.796 1114.11 621.167 1118.36 618.573C1121.05 616.944 1123.37 614.772 1126.3 613.535C1130.79 611.634 1135.44 610.247 1140.27 609.492C1143.83 608.949 1145.88 609.492 1150.01 606.566C1153.87 603.821 1155.83 603.911 1152.12 607.562C1151.37 608.346 1151.91 609.281 1152.76 609.161C1153.69 609.342 1156.16 610.005 1161.87 604.967C1163.34 603.67 1164.16 604.455 1162.89 606.355C1162.56 606.868 1162.02 607.26 1161.62 607.682C1158.82 610.307 1156.1 613.263 1151.97 613.384C1145.7 612.962 1143.89 617.004 1140.09 619.206C1134.08 622.706 1128.14 626.235 1121.47 628.528C1118.49 629.554 1116.31 632.269 1113.6 633.988C1107.47 637.88 1103.04 643.793 1097.31 648.077C1092.6 651.576 1090.34 656.373 1087.96 661.471C1086.24 665.181 1085.3 668.983 1084.91 672.814C1084.49 677.098 1085.3 681.381 1089.1 684.308C1094.11 688.139 1095.35 693.328 1094.11 699.12C1092.96 704.369 1093.66 709.045 1096.55 713.57C1099.96 718.879 1103.01 724.46 1107.38 729.076C1109.19 731.007 1111.09 732.847 1113.42 734.205C1116.31 735.894 1118.64 738.187 1120.39 740.962C1122.32 744.009 1124.13 747.116 1125.42 750.555C1127.26 755.442 1129.86 759.937 1134.38 762.954C1136.04 764.07 1138.18 764.342 1139.63 765.91C1141.74 768.173 1142.11 769.621 1141.05 771.823C1140.27 773.513 1139.09 774.931 1138.37 776.65C1137.37 778.973 1136.89 781.417 1136.1 783.8C1134.44 788.747 1131.7 791.915 1124.73 791.704C1123.92 791.704 1123.13 791.764 1122.32 791.704C1121.2 791.613 1120.27 791.07 1119.96 789.954C1119.66 788.868 1120.33 788.084 1121.14 787.42C1121.29 787.299 1121.47 787.269 1121.62 787.179C1123.76 785.881 1125.09 784.222 1125.42 781.507C1126 776.529 1125.85 771.763 1123.07 767.419C1121.53 765.005 1118.97 763.557 1116.98 761.506C1113.36 757.795 1109.44 754.326 1106.09 750.404C1103.67 747.539 1100.41 746.03 1097.64 743.798C1097.01 743.285 1096.25 742.832 1095.89 742.169C1093.36 737.704 1088.89 735.351 1085.06 732.304C1081.92 729.8 1078.88 727.206 1076.43 724.008C1075.65 722.952 1075.1 722.862 1074.14 723.887C1071.97 726.24 1069.64 728.443 1067.41 730.735C1066.87 731.278 1066.21 731.821 1067.41 732.576C1074.05 736.648 1078.24 743.013 1082.41 749.258C1085.51 753.904 1089.4 757.283 1094.41 759.545C1095.95 760.239 1097.4 760.993 1098.51 762.321C1099.51 763.527 1099.84 764.824 1099.12 766.272C1097.04 770.375 1095.83 774.719 1094.95 779.244C1094.38 782.231 1092.15 784.433 1089.92 786.364C1088.5 787.571 1086.48 786.575 1086.27 784.614C1086.09 783.046 1085.93 781.417 1086.54 779.848C1087.74 776.71 1086.72 773.784 1085.69 770.888C1082.53 761.959 1075.16 757.675 1067.2 753.964C1061.41 751.279 1055.89 748.051 1050.88 744.039C1048.47 742.108 1046.39 739.695 1044.97 736.889C1043.49 733.933 1043.76 731.067 1045.36 728.081C1047.77 723.555 1049.82 718.789 1052.78 714.596C1055.98 710.01 1058.75 705.123 1062.62 700.99C1064.12 699.361 1065.3 697.34 1064.88 694.685C1064.46 691.97 1064.82 689.165 1065.36 686.419C1065.87 683.885 1065.21 681.381 1065.15 678.847C1065.15 678.455 1064.82 678.063 1064.7 677.61" fill="url(#paint1_linear_2417_2092)"/>
<path d="M1103.94 673.628C1106.76 673.628 1109.04 671.346 1109.04 668.53C1109.04 665.714 1106.76 663.432 1103.94 663.432C1101.13 663.432 1098.84 665.714 1098.84 668.53C1098.84 671.346 1101.13 673.628 1103.94 673.628Z" fill="url(#paint2_linear_2417_2092)"/>
<path d="M1103.94 687.565C1106.39 687.565 1108.38 685.58 1108.38 683.13C1108.38 680.681 1106.39 678.696 1103.94 678.696C1101.49 678.696 1099.51 680.681 1099.51 683.13C1099.51 685.58 1101.49 687.565 1103.94 687.565Z" fill="url(#paint3_linear_2417_2092)"/>
<path d="M1110.28 661.108C1112.73 661.108 1114.71 659.123 1114.71 656.674C1114.71 654.225 1112.73 652.239 1110.28 652.239C1107.83 652.239 1105.84 654.225 1105.84 656.674C1105.84 659.123 1107.83 661.108 1110.28 661.108Z" fill="url(#paint4_linear_2417_2092)"/>
<path d="M1106.72 700.024C1108.75 700.024 1110.4 698.376 1110.4 696.344C1110.4 694.311 1108.75 692.663 1106.72 692.663C1104.68 692.663 1103.04 694.311 1103.04 696.344C1103.04 698.376 1104.68 700.024 1106.72 700.024Z" fill="url(#paint5_linear_2417_2092)"/>
<path d="M1119.6 651.727C1121.63 651.727 1123.28 650.079 1123.28 648.047C1123.28 646.014 1121.63 644.366 1119.6 644.366C1117.57 644.366 1115.92 646.014 1115.92 648.047C1115.92 650.079 1117.57 651.727 1119.6 651.727Z" fill="url(#paint6_linear_2417_2092)"/>
<path d="M1109.04 710.161C1110.69 710.161 1112.02 708.824 1112.02 707.175C1112.02 705.525 1110.69 704.188 1109.04 704.188C1107.39 704.188 1106.05 705.525 1106.05 707.175C1106.05 708.824 1107.39 710.161 1109.04 710.161Z" fill="url(#paint7_linear_2417_2092)"/>
<path d="M1129.92 644.366C1131.57 644.366 1132.91 643.029 1132.91 641.379C1132.91 639.73 1131.57 638.393 1129.92 638.393C1128.27 638.393 1126.93 639.73 1126.93 641.379C1126.93 643.029 1128.27 644.366 1129.92 644.366Z" fill="url(#paint8_linear_2417_2092)"/>
<path d="M1161.11 614.078C1161.11 614.078 1219.46 638.875 1212.03 704.188C1204.61 769.5 1144.64 777.314 1144.64 777.314" stroke="#81623C" stroke-width="4.78947" stroke-miterlimit="10"/>
<path d="M1099.99 773.694C1099.99 773.694 1109.74 777.435 1119.6 777.314" stroke="#81623C" stroke-width="4.78947" stroke-miterlimit="10"/>
</g>
<path d="M1025.38 983.793V917.611H1069.2V929.148H1039.38V944.918H1066.3V956.454H1039.38V983.793H1025.38ZM1095.34 917.611V983.793H1081.35V917.611H1095.34ZM1107.06 929.148V917.611H1161.42V929.148H1141.15V983.793H1127.32V929.148H1107.06ZM1207.38 948.311L1194.78 949.086C1194.56 948.009 1194.1 947.04 1193.39 946.178C1192.68 945.295 1191.74 944.594 1190.58 944.077C1189.44 943.539 1188.07 943.27 1186.47 943.27C1184.34 943.27 1182.54 943.722 1181.08 944.627C1179.61 945.51 1178.88 946.695 1178.88 948.181C1178.88 949.366 1179.35 950.368 1180.3 951.187C1181.25 952.005 1182.88 952.663 1185.18 953.158L1194.17 954.968C1198.99 955.959 1202.59 957.553 1204.96 959.75C1207.33 961.948 1208.51 964.835 1208.51 968.411C1208.51 971.664 1207.56 974.518 1205.64 976.974C1203.74 979.43 1201.14 981.348 1197.82 982.727C1194.52 984.084 1190.72 984.762 1186.41 984.762C1179.84 984.762 1174.6 983.394 1170.71 980.658C1166.83 977.901 1164.55 974.152 1163.89 969.413L1177.43 968.702C1177.84 970.705 1178.83 972.235 1180.4 973.29C1181.97 974.325 1183.99 974.842 1186.44 974.842C1188.86 974.842 1190.79 974.378 1192.26 973.452C1193.75 972.504 1194.5 971.287 1194.52 969.8C1194.5 968.551 1193.97 967.528 1192.94 966.73C1191.9 965.912 1190.31 965.287 1188.16 964.856L1179.56 963.143C1174.71 962.174 1171.1 960.494 1168.73 958.102C1166.39 955.711 1165.21 952.663 1165.21 948.957C1165.21 945.769 1166.07 943.022 1167.8 940.717C1169.54 938.411 1171.99 936.634 1175.13 935.385C1178.3 934.135 1182 933.51 1186.25 933.51C1192.52 933.51 1197.45 934.835 1201.05 937.485C1204.67 940.135 1206.78 943.743 1207.38 948.311Z" fill="black"/>
</g>
<defs>
<linearGradient id="paint0_linear_2417_2092" x1="1037.21" y1="683.583" x2="1062.22" y2="683.583" gradientUnits="userSpaceOnUse">
<stop offset="0.34" stop-color="#F2B164"/>
<stop offset="0.66" stop-color="#BA732A"/>
<stop offset="0.73" stop-color="#AE6B26"/>
<stop offset="0.85" stop-color="#8E561E"/>
<stop offset="0.99" stop-color="#603813"/>
</linearGradient>
<linearGradient id="paint1_linear_2417_2092" x1="1051.21" y1="698.034" x2="1158.46" y2="698.034" gradientUnits="userSpaceOnUse">
<stop offset="0.29" stop-color="#F2B164"/>
<stop offset="0.64" stop-color="#BA732A"/>
<stop offset="0.7" stop-color="#AE6B26"/>
<stop offset="0.82" stop-color="#8E561E"/>
<stop offset="0.96" stop-color="#603813"/>
</linearGradient>
<linearGradient id="paint2_linear_2417_2092" x1="1098.84" y1="668.53" x2="1109.04" y2="668.53" gradientUnits="userSpaceOnUse">
<stop stop-color="#F2B164"/>
<stop offset="0.41" stop-color="#D48F44"/>
<stop offset="0.77" stop-color="#C07A30"/>
<stop offset="1" stop-color="#BA7329"/>
</linearGradient>
<linearGradient id="paint3_linear_2417_2092" x1="1099.51" y1="683.13" x2="1108.38" y2="683.13" gradientUnits="userSpaceOnUse">
<stop stop-color="#F2B164"/>
<stop offset="1" stop-color="#BA7329"/>
</linearGradient>
<linearGradient id="paint4_linear_2417_2092" x1="1105.84" y1="656.674" x2="1114.68" y2="656.674" gradientUnits="userSpaceOnUse">
<stop stop-color="#F2B164"/>
<stop offset="1" stop-color="#BA7329"/>
</linearGradient>
<linearGradient id="paint5_linear_2417_2092" x1="1103.04" y1="696.344" x2="1110.43" y2="696.344" gradientUnits="userSpaceOnUse">
<stop stop-color="#F2B164"/>
<stop offset="1" stop-color="#BA7329"/>
</linearGradient>
<linearGradient id="paint6_linear_2417_2092" x1="1115.89" y1="648.047" x2="1123.28" y2="648.047" gradientUnits="userSpaceOnUse">
<stop stop-color="#F2B164"/>
<stop offset="1" stop-color="#BA7329"/>
</linearGradient>
<linearGradient id="paint7_linear_2417_2092" x1="1106.02" y1="707.175" x2="1112.02" y2="707.175" gradientUnits="userSpaceOnUse">
<stop stop-color="#F2B164"/>
<stop offset="1" stop-color="#BA7329"/>
</linearGradient>
<linearGradient id="paint8_linear_2417_2092" x1="1126.93" y1="641.379" x2="1132.94" y2="641.379" gradientUnits="userSpaceOnUse">
<stop stop-color="#F2B164"/>
<stop offset="1" stop-color="#BA7329"/>
</linearGradient>
<clipPath id="clip0_2417_2092">
<rect width="2250" height="1500" fill="white"/>
</clipPath>
<clipPath id="clip1_2417_2092">
<rect width="364" height="364" fill="white" transform="translate(943 515.25)"/>
</clipPath>
</defs>
</svg>
