<svg width="2250" height="1500" viewBox="0 0 2250 1500" fill="none" xmlns="http://www.w3.org/2000/svg">
<g clip-path="url(#clip0_2454_1755)">
<rect width="2250" height="1500" fill="white"/>
<g filter="url(#filter0_d_2454_1755)">
<rect y="-18" width="2250" height="1518" fill="#457286"/>
<g style="mix-blend-mode:overlay">
<rect x="-54" y="-6" width="2358" height="1512" fill="url(#paint0_radial_2454_1755)" fill-opacity="0.5"/>
</g>
</g>
<rect x="-97" y="153" width="2444" height="1194" stroke="white" stroke-width="14"/>
<path d="M783.034 859.105C788.362 841.993 793.588 825.223 798.797 808.453C815.874 753.618 832.985 698.782 849.926 643.896C850.9 640.736 852.368 639.763 855.476 639.438C887.957 635.955 920.422 632.317 952.903 628.731C984.957 625.196 1017.01 621.678 1049.05 618.126C1080.95 614.591 1112.87 611.022 1144.77 607.487C1174.41 604.208 1204.06 600.963 1233.71 597.667C1263.08 594.405 1292.43 591.127 1321.81 587.865C1354 584.296 1386.19 580.744 1418.38 577.192C1432.35 575.637 1446.34 574.083 1460.31 572.529C1462 572.342 1463.69 572.205 1466.01 572V576.748C1466.01 639.934 1466.04 703.137 1465.91 766.323C1465.91 769.09 1464.93 772.215 1463.46 774.555C1442.39 807.924 1421.22 841.208 1399.87 874.389C1398.4 876.66 1395.77 878.761 1393.23 879.683C1350.82 895.138 1308.3 910.268 1265.91 925.809C1259.15 928.285 1252.99 926.27 1246.68 925.399C1186.91 917.048 1127.16 908.492 1067.41 899.971C1010.61 891.859 953.825 883.679 897.026 875.584C860.19 870.324 823.354 865.15 786.501 859.924C785.527 859.788 784.571 859.497 783 859.139L783.034 859.105ZM1293.6 718.712C1291.99 720.778 1290.95 722.23 1289.8 723.596C1276.28 739.683 1262.79 755.787 1249.21 771.805C1244.17 777.765 1238.78 783.435 1233.89 789.514C1232.7 791.017 1232.37 793.664 1232.61 795.679C1232.72 796.567 1235.19 797.814 1236.59 797.831C1267.01 797.951 1297.42 797.968 1327.82 797.831C1329.53 797.831 1331.9 796.755 1332.79 795.406C1336.22 790.215 1339.31 784.767 1342.2 779.251C1342.61 778.448 1341.6 776.262 1340.63 775.562C1339.65 774.862 1337.91 775.101 1336.51 775.101C1319.88 775.101 1303.26 775.101 1286.63 775.101C1285.16 775.101 1283.71 774.982 1281.42 774.879C1290.01 764.53 1297.9 754.881 1305.96 745.369C1317.35 731.947 1328.93 718.695 1340.22 705.186C1341.74 703.376 1341.99 700.524 1342.83 698.15C1340.68 697.484 1338.56 696.306 1336.39 696.221C1329.58 695.965 1322.75 696.135 1315.93 696.135C1294.06 696.135 1272.16 696.289 1250.29 695.999C1245.16 695.93 1242.07 697.519 1239.96 702.061C1238.33 705.511 1236.18 708.704 1234.24 712.017C1231.08 717.414 1231.74 718.695 1237.92 718.695C1254.83 718.712 1271.74 718.695 1288.66 718.695C1290.03 718.695 1291.39 718.695 1293.61 718.695L1293.6 718.712ZM1152.74 764.803C1151.14 763.779 1150.2 763.266 1149.34 762.617C1131.57 748.956 1113.82 735.277 1096.05 721.615C1085.82 713.759 1075.62 705.835 1065.24 698.185C1063.62 696.989 1060.85 696.289 1059.06 696.818C1057.98 697.143 1057.25 700.285 1057.21 702.181C1057.04 711.829 1057.14 721.478 1057.14 731.127C1057.14 751.568 1057.13 771.993 1057.14 792.435C1057.14 797.677 1058.29 798.309 1062.81 795.696C1067.24 793.152 1071.57 790.471 1076.12 788.148C1078.95 786.697 1079.86 784.664 1079.79 781.676C1079.65 776.279 1079.75 770.883 1079.75 765.504C1079.75 756.76 1079.75 748.016 1079.75 738.59C1081.36 739.717 1082.38 740.4 1083.34 741.134C1110.78 762.208 1138.23 783.298 1165.69 804.372C1166.69 805.14 1167.7 805.96 1168.83 806.523C1172.55 808.368 1175.27 806.728 1175.34 802.63C1175.39 798.941 1175.34 795.252 1175.34 791.564C1175.34 765.162 1175.4 738.76 1175.27 712.376C1175.27 710.395 1174.48 707.56 1173.05 706.587C1167.92 703.069 1162.34 700.2 1156.96 697.04C1154.38 695.521 1153.27 696.665 1152.95 699.175C1152.76 700.575 1152.78 702.01 1152.78 703.427C1152.78 722.161 1152.78 740.895 1152.76 759.629C1152.76 761.132 1152.76 762.652 1152.76 764.82L1152.74 764.803ZM1000.26 726.089C1000.26 713.879 1000.29 701.668 1000.24 689.458C1000.22 684.984 998.209 683.874 994.349 686.043C989.79 688.621 985.35 691.439 980.688 693.847C978.058 695.196 977.17 696.887 977.187 699.824C977.323 718.148 977.306 736.455 977.238 754.779C977.204 763.676 973.276 769.226 964.686 771.088C958.658 772.403 952.271 773.188 946.14 772.761C936.987 772.113 928.653 768.219 928.602 755.479C928.602 753.942 927.099 751.859 925.698 750.954C920.831 747.794 915.708 745.011 910.653 742.125C906.845 739.956 905.598 740.639 905.684 745.182C905.786 750.988 905.82 756.845 906.504 762.6C908.245 777.714 916.135 788.438 930.583 793.698C943.766 798.497 957.462 798.531 970.868 795.44C991.002 790.812 1000.24 778.517 1000.28 758.024C1000.29 747.367 1000.28 736.728 1000.28 726.072L1000.26 726.089ZM1016.64 737.155C1016.64 737.155 1016.64 737.155 1016.65 737.155C1016.65 752.9 1016.57 768.646 1016.77 784.391C1016.81 786.287 1017.98 789.053 1019.49 789.907C1024.27 792.622 1029.41 794.723 1034.5 796.858C1037.98 798.309 1039.71 797.165 1039.71 793.493C1039.74 761.849 1039.76 730.222 1039.62 698.594C1039.62 697.245 1038.49 695.384 1037.33 694.65C1032.19 691.405 1026.81 688.536 1021.57 685.411C1018.58 683.635 1017.35 685.206 1016.81 687.802C1016.48 689.304 1016.62 690.91 1016.62 692.464C1016.62 707.355 1016.62 722.247 1016.62 737.155H1016.64ZM1215.36 747.487C1215.36 739.409 1215.36 731.315 1215.36 723.237C1215.36 715.723 1215.43 708.209 1215.31 700.695C1215.25 696.545 1213.52 695.589 1210.02 697.553C1205.08 700.319 1200.05 702.949 1195.33 706.04C1193.83 707.031 1192.31 709.302 1192.29 711.01C1192.11 741.493 1192.14 771.976 1192.19 802.476C1192.19 806.455 1194.27 807.685 1198.08 806.079C1201.99 804.44 1205.73 802.357 1209.69 800.905C1213.96 799.351 1215.45 796.601 1215.4 792.161C1215.23 777.27 1215.33 762.378 1215.33 747.487H1215.36Z" fill="black"/>
<path d="M1293.6 718.712C1291.36 718.712 1290.01 718.712 1288.64 718.712C1271.74 718.712 1254.83 718.729 1237.91 718.712C1231.73 718.712 1231.06 717.431 1234.22 712.035C1236.15 708.739 1238.32 705.528 1239.94 702.079C1242.06 697.536 1245.15 695.948 1250.27 696.016C1272.15 696.307 1294.04 696.153 1315.92 696.153C1322.73 696.153 1329.56 695.982 1336.38 696.238C1338.54 696.324 1340.68 697.485 1342.81 698.168C1341.98 700.542 1341.7 703.394 1340.2 705.204C1328.91 718.712 1317.33 731.964 1305.94 745.387C1297.88 754.899 1289.99 764.548 1281.4 774.897C1283.69 774.999 1285.16 775.119 1286.61 775.119C1303.25 775.119 1319.86 775.084 1336.5 775.119C1337.9 775.119 1339.64 774.88 1340.61 775.58C1341.58 776.28 1342.59 778.466 1342.18 779.268C1339.3 784.784 1336.2 790.232 1332.77 795.424C1331.88 796.773 1329.51 797.849 1327.8 797.849C1297.39 797.985 1266.97 797.985 1236.58 797.849C1235.18 797.849 1232.7 796.585 1232.6 795.697C1232.37 793.682 1232.68 791.035 1233.88 789.532C1238.76 783.452 1244.14 777.783 1249.2 771.823C1262.77 755.787 1276.28 739.683 1289.79 723.613C1290.93 722.247 1291.99 720.796 1293.58 718.729L1293.6 718.712Z" fill="white"/>
<path d="M1152.74 764.787C1152.74 762.619 1152.74 761.116 1152.74 759.596C1152.74 740.862 1152.74 722.128 1152.76 703.394C1152.76 701.977 1152.76 700.542 1152.93 699.142C1153.25 696.632 1154.36 695.487 1156.94 697.007C1162.32 700.167 1167.89 703.036 1173.03 706.554C1174.45 707.527 1175.23 710.362 1175.25 712.343C1175.38 738.744 1175.33 765.129 1175.32 791.531C1175.32 795.219 1175.37 798.908 1175.32 802.597C1175.25 806.695 1172.53 808.335 1168.81 806.49C1167.68 805.927 1166.68 805.107 1165.67 804.339C1138.22 783.265 1110.78 762.175 1083.32 741.101C1082.35 740.35 1081.32 739.684 1079.73 738.557C1079.73 747.983 1079.73 756.727 1079.73 765.471C1079.73 770.867 1079.65 776.263 1079.77 781.643C1079.84 784.631 1078.93 786.681 1076.1 788.115C1071.55 790.438 1067.22 793.119 1062.79 795.663C1058.27 798.276 1057.12 797.661 1057.12 792.402C1057.11 771.96 1057.12 751.535 1057.12 731.094C1057.12 721.445 1057.02 711.796 1057.19 702.148C1057.23 700.252 1057.96 697.11 1059.04 696.785C1060.83 696.256 1063.6 696.956 1065.22 698.152C1075.6 705.802 1085.8 713.726 1096.03 721.582C1113.8 735.244 1131.55 748.923 1149.32 762.584C1150.18 763.233 1151.14 763.746 1152.72 764.77L1152.74 764.787Z" fill="white"/>
<path d="M1000.26 726.089C1000.26 736.746 1000.26 747.385 1000.26 758.041C1000.22 778.534 991 790.83 970.849 795.458C957.443 798.531 943.747 798.514 930.563 793.716C916.099 788.439 908.226 777.731 906.484 762.618C905.818 756.863 905.784 751.005 905.664 745.199C905.579 740.656 906.808 739.973 910.634 742.142C915.689 745.011 920.812 747.795 925.679 750.971C927.079 751.876 928.582 753.96 928.582 755.497C928.616 768.236 936.95 772.13 946.121 772.779C952.251 773.206 958.638 772.437 964.667 771.105C973.256 769.227 977.184 763.694 977.218 754.796C977.304 736.472 977.304 718.165 977.167 699.841C977.15 696.904 978.038 695.213 980.668 693.864C985.33 691.473 989.77 688.656 994.33 686.06C998.189 683.874 1000.2 685.001 1000.22 689.475C1000.29 701.686 1000.24 713.896 1000.26 726.106V726.089Z" fill="white"/>
<path d="M1016.64 737.139C1016.64 722.248 1016.64 707.356 1016.64 692.448C1016.64 690.894 1016.5 689.288 1016.83 687.786C1017.37 685.19 1018.62 683.619 1021.59 685.395C1026.82 688.503 1032.2 691.372 1037.35 694.634C1038.51 695.368 1039.64 697.229 1039.64 698.579C1039.78 730.206 1039.76 761.85 1039.73 793.477C1039.73 797.149 1037.98 798.293 1034.52 796.842C1029.43 794.707 1024.29 792.606 1019.51 789.891C1018 789.037 1016.81 786.288 1016.79 784.375C1016.57 768.63 1016.67 752.885 1016.67 737.139C1016.67 737.139 1016.67 737.139 1016.65 737.139H1016.64Z" fill="white"/>
<path d="M1215.36 747.469C1215.36 762.36 1215.26 777.252 1215.43 792.143C1215.48 796.566 1213.99 799.333 1209.72 800.887C1205.74 802.338 1202.02 804.422 1198.11 806.061C1194.29 807.667 1192.22 806.437 1192.22 802.458C1192.17 771.975 1192.15 741.475 1192.32 710.992C1192.32 709.301 1193.86 707.013 1195.36 706.022C1200.07 702.931 1205.11 700.284 1210.05 697.535C1213.55 695.571 1215.27 696.527 1215.34 700.677C1215.48 708.191 1215.39 715.705 1215.39 723.219C1215.39 731.297 1215.39 739.391 1215.39 747.469H1215.36Z" fill="white"/>
</g>
<defs>
<filter id="filter0_d_2454_1755" x="-64" y="-28" width="2408" height="1574" filterUnits="userSpaceOnUse" color-interpolation-filters="sRGB">
<feFlood flood-opacity="0" result="BackgroundImageFix"/>
<feColorMatrix in="SourceAlpha" type="matrix" values="0 0 0 0 0 0 0 0 0 0 0 0 0 0 0 0 0 0 127 0" result="hardAlpha"/>
<feOffset dx="15" dy="15"/>
<feGaussianBlur stdDeviation="12.5"/>
<feComposite in2="hardAlpha" operator="out"/>
<feColorMatrix type="matrix" values="0 0 0 0 0 0 0 0 0 0 0 0 0 0 0 0 0 0 0.25 0"/>
<feBlend mode="normal" in2="BackgroundImageFix" result="effect1_dropShadow_2454_1755"/>
<feBlend mode="normal" in="SourceGraphic" in2="effect1_dropShadow_2454_1755" result="shape"/>
</filter>
<radialGradient id="paint0_radial_2454_1755" cx="0" cy="0" r="1" gradientUnits="userSpaceOnUse" gradientTransform="translate(1125 1187.24) rotate(90) scale(1473.43 1531.89)">
<stop stop-color="white" stop-opacity="0.6"/>
<stop offset="1" stop-color="white" stop-opacity="0"/>
</radialGradient>
<clipPath id="clip0_2454_1755">
<rect width="2250" height="1500" fill="white"/>
</clipPath>
</defs>
</svg>
